<?xml version="1.0" encoding="UTF-8"?>
<svg width="156px" height="220px" viewBox="0 0 156 220" version="1.1" xmlns="http://www.w3.org/2000/svg" xmlns:xlink="http://www.w3.org/1999/xlink">
    <!-- Generator: Sketch 52.5 (67469) - http://www.bohemiancoding.com/sketch -->
    <title>Group 4</title>
    <desc>Created with Sketch.</desc>
    <defs>
        <rect id="path-1" x="0" y="0" width="148" height="212"></rect>
        <filter x="-4.7%" y="-2.4%" width="109.5%" height="106.6%" filterUnits="objectBoundingBox" id="filter-2">
            <feOffset dx="0" dy="2" in="SourceAlpha" result="shadowOffsetOuter1"></feOffset>
            <feGaussianBlur stdDeviation="2" in="shadowOffsetOuter1" result="shadowBlurOuter1"></feGaussianBlur>
            <feColorMatrix values="0 0 0 0 0   0 0 0 0 0   0 0 0 0 0  0 0 0 0.5 0" type="matrix" in="shadowBlurOuter1"></feColorMatrix>
        </filter>
    </defs>
    <g id="Page-1" stroke="none" stroke-width="1" fill="none" fill-rule="evenodd">
        <g id="Vet-Records" transform="translate(-195.000000, -283.000000)">
            <g id="Input" transform="translate(17.000000, 194.000000)">
                <g id="Group-4" transform="translate(182.000000, 91.000000)">
                    <g id="Rectangle" fill-rule="nonzero">
                        <use fill="black" fill-opacity="1" filter="url(#filter-2)" xlink:href="#path-1"></use>
                        <use fill="#F0EFEF" xlink:href="#path-1"></use>
                    </g>
                    <g id="camera-(1)" transform="translate(32.000000, 39.000000)">
                        <rect id="Rectangle" fill="#ACDBC8" x="2" y="28.4117647" width="79" height="26.3823529"></rect>
                        <g id="Group" transform="translate(2.000000, 2.029412)" fill="#FFFFFF">
                            <path d="M0,52.7647059 L0,62.6580882 C0,64.4801195 1.4370935,65.9558824 3.21138211,65.9558824 L75.7886179,65.9558824 C77.5629065,65.9558824 79,64.4801195 79,62.6580882 L79,52.7647059 L0,52.7647059 Z" id="Path"></path>
                            <path d="M75.7886179,13.1911765 L57.1626016,13.1911765 L51.6277846,1.82368015 C51.0834553,0.705727941 49.9707114,0 48.7552033,0 L30.2447967,0 C29.0292886,0 27.9165447,0.705727941 27.3722154,1.82368015 L21.8373984,13.1911765 L16.0569106,13.1911765 L16.0569106,9.89338235 C16.0569106,8.0713511 14.6198171,6.59558824 12.8455285,6.59558824 L9.63414634,6.59558824 C7.85985772,6.59558824 6.42276423,8.0713511 6.42276423,9.89338235 L6.42276423,13.1911765 L3.21138211,13.1911765 C1.4370935,13.1911765 0,14.6669393 0,16.4889706 L0,26.3823529 L79,26.3823529 L79,16.4889706 C79,14.6669393 77.5629065,13.1911765 75.7886179,13.1911765 Z" id="Path"></path>
                        </g>
                        <path d="M61,41.0955882 C61,52.0005689 52.287075,60.8823529 41.5,60.8823529 C30.710975,60.8823529 22,51.9984254 22,41.0955882 C22,30.1906075 30.712925,21.3088235 41.5,21.3088235 C52.289025,21.3088235 61,30.1927511 61,41.0955882 Z" id="Path" fill="#F0EFEF"></path>
                        <path d="M41.5,28.4117647 C48.3921875,28.4117647 54,34.3296562 54,41.6029412 C54,48.8762261 48.3921875,54.7941176 41.5,54.7941176 C34.6078125,54.7941176 29,48.8762261 29,41.6029412 C29,34.3296562 34.6078125,28.4117647 41.5,28.4117647 Z" id="Path" fill="#FFFFFF"></path>
                        <path d="M64.5,22.3235294 C65.328,22.3235294 66,21.6416471 66,20.8014706 C66,19.9612941 65.328,19.2794118 64.5,19.2794118 C63.672,19.2794118 63,19.9612941 63,20.8014706 C63,21.6416471 63.672,22.3235294 64.5,22.3235294 Z" id="Path" fill="#535354"></path>
                        <path d="M77.1953125,13.1428571 L59.6069531,13.1428571 L54.5290391,2.72500714 C53.7095195,1.0442 52.062793,0 50.2314063,0 L31.7685938,0 C29.9368867,0 28.2901602,1.0442 27.4709609,2.72517143 L22.3930469,13.1428571 L19.21875,13.1428571 L19.21875,11.5 C19.21875,8.78238571 17.0633672,6.57142857 14.4140625,6.57142857 L11.2109375,6.57142857 C8.56163281,6.57142857 6.40625,8.78238571 6.40625,11.5 L6.40625,13.1428571 L4.8046875,13.1428571 C2.15538281,13.1428571 0,15.3538143 0,18.0714286 C0,22.5358929 0,62.3347643 0,64.0714286 C0,66.7890429 2.15538281,69 4.8046875,69 L77.1953125,69 C79.8446172,69 82,66.7890429 82,64.0714286 C82,59.6069643 82,19.8080929 82,18.0714286 C82,15.3538143 79.8446172,13.1428571 77.1953125,13.1428571 Z M3.203125,29.555 L23.455043,29.555 C21.3265664,32.9657357 20.1796875,36.9629714 20.1796875,41.0714286 C20.1796875,45.1802143 21.3267266,49.16135 23.455043,52.5714286 L3.203125,52.5714286 L3.203125,29.555 Z M23.3828125,41.0714286 C23.3828125,31.0163214 31.3569922,23 41,23 C50.6306758,23 58.6171875,31.0038357 58.6171875,41.0714286 C58.6171875,51.1276857 50.6418867,59.1428571 41,59.1428571 C31.3494648,59.1428571 23.3828125,51.1188143 23.3828125,41.0714286 Z M61.8203125,41.0714286 C61.8203125,36.9628071 60.6734336,32.9821643 58.544957,29.5714286 L78.796875,29.5714286 L78.796875,52.5714286 L58.544957,52.5714286 C60.6734336,49.1606929 61.8203125,45.18005 61.8203125,41.0714286 Z M30.3359961,4.19454286 C30.6092227,3.634 31.1580781,3.28571429 31.7685937,3.28571429 L50.2314063,3.28571429 C50.8419219,3.28571429 51.3909375,3.634 51.6641641,4.19454286 L56.0258594,13.1428571 L25.9741406,13.1428571 L30.3359961,4.19454286 Z M9.609375,11.5 C9.609375,10.5941286 10.3278359,9.85714286 11.2109375,9.85714286 L14.4140625,9.85714286 C15.2971641,9.85714286 16.015625,10.5941286 16.015625,11.5 L16.015625,13.1428571 L9.609375,13.1428571 L9.609375,11.5 Z M4.8046875,16.4285714 C6.25906641,16.4285714 74.9438359,16.4285714 77.1953125,16.4285714 C78.0784141,16.4285714 78.796875,17.1655571 78.796875,18.0714286 L78.796875,26.2857143 L56.0184922,26.2857143 C52.1052344,22.1010286 46.6736953,19.7142857 41,19.7142857 C35.3256641,19.7142857 29.8936445,22.1016857 25.9813477,26.2857143 L3.203125,26.2857143 L3.203125,18.0714286 C3.203125,17.1655571 3.92158594,16.4285714 4.8046875,16.4285714 Z M77.1953125,65.7142857 L4.8046875,65.7142857 C3.92158594,65.7142857 3.203125,64.9773 3.203125,64.0714286 L3.203125,55.8571429 L25.9815078,55.8571429 C29.8949258,60.0418286 35.3264648,62.4285714 41,62.4285714 C46.6744961,62.4285714 52.1065156,60.0411714 56.0186523,55.8571429 L78.796875,55.8571429 L78.796875,64.0714286 C78.796875,64.9773 78.0784141,65.7142857 77.1953125,65.7142857 Z" id="Shape" fill="#535354" fill-rule="nonzero"></path>
                        <path d="M45.5,7.10294118 L36.5,7.10294118 C35.67155,7.10294118 35,7.78436691 35,8.625 C35,9.46563309 35.67155,10.1470588 36.5,10.1470588 L45.5,10.1470588 C46.3283,10.1470588 47,9.46563309 47,8.625 C47,7.78436691 46.3283,7.10294118 45.5,7.10294118 Z" id="Path" fill="#535354"></path>
                        <path d="M41.5,56.8235294 C49.4953,56.8235294 56,50.2231721 56,42.1102941 C56,33.9974162 49.4953,27.3970588 41.5,27.3970588 C33.5047,27.3970588 27,33.9974162 27,42.1102941 C27,50.2231721 33.5047,56.8235294 41.5,56.8235294 Z M41.5,30.6666667 C47.7185667,30.6666667 52.7777778,35.8002779 52.7777778,42.1102941 C52.7777778,48.4203103 47.7185667,53.5539216 41.5,53.5539216 C35.2814333,53.5539216 30.2222222,48.4203103 30.2222222,42.1102941 C30.2222222,35.8002779 35.2814333,30.6666667 41.5,30.6666667 Z" id="Shape" fill="#535354" fill-rule="nonzero"></path>
                        <path d="M33.6666667,42.6176471 C34.5871667,42.6176471 35.3333333,41.8605074 35.3333333,40.9264706 C35.3333333,38.1289265 37.5763333,35.8529412 40.3333333,35.8529412 C41.2536667,35.8529412 42,35.0958015 42,34.1617647 C42,33.2277279 41.2536667,32.4705882 40.3333333,32.4705882 C35.7383333,32.4705882 32,36.2638971 32,40.9264706 C32,41.8605074 32.7461667,42.6176471 33.6666667,42.6176471 Z" id="Path" fill="#535354"></path>
                        <path d="M70.75,22.3235294 L74.25,22.3235294 C75.21635,22.3235294 76,21.6421037 76,20.8014706 C76,19.9608375 75.21635,19.2794118 74.25,19.2794118 L70.75,19.2794118 C69.78365,19.2794118 69,19.9608375 69,20.8014706 C69,21.6421037 69.78365,22.3235294 70.75,22.3235294 Z" id="Path" fill="#535354"></path>
                    </g>
                    <text id="TAKE-PHOTO" font-family="GillSans-SemiBold, Gill Sans" font-size="18" font-weight="500" letter-spacing="1.544517" fill="#000000" fill-opacity="0.749943388">
                        <tspan x="49.8352824" y="151">TAKE </tspan>
                        <tspan x="39.4126333" y="173">PHOTO</tspan>
                    </text>
                </g>
            </g>
        </g>
    </g>
</svg>