<?xml version="1.0" encoding="UTF-8"?>
<svg width="156px" height="220px" viewBox="0 0 156 220" version="1.1" xmlns="http://www.w3.org/2000/svg" xmlns:xlink="http://www.w3.org/1999/xlink">
    <!-- Generator: Sketch 52.5 (67469) - http://www.bohemiancoding.com/sketch -->
    <title>Group 2</title>
    <desc>Created with Sketch.</desc>
    <defs>
        <rect id="path-1" x="0" y="0" width="148" height="212"></rect>
        <filter x="-4.7%" y="-2.4%" width="109.5%" height="106.6%" filterUnits="objectBoundingBox" id="filter-2">
            <feOffset dx="0" dy="2" in="SourceAlpha" result="shadowOffsetOuter1"></feOffset>
            <feGaussianBlur stdDeviation="2" in="shadowOffsetOuter1" result="shadowBlurOuter1"></feGaussianBlur>
            <feColorMatrix values="0 0 0 0 0   0 0 0 0 0   0 0 0 0 0  0 0 0 0.5 0" type="matrix" in="shadowBlurOuter1"></feColorMatrix>
        </filter>
    </defs>
    <g id="Page-1" stroke="none" stroke-width="1" fill="none" fill-rule="evenodd">
        <g id="Vet-Records" transform="translate(-24.000000, -283.000000)">
            <g id="Input" transform="translate(17.000000, 194.000000)">
                <g id="Group-2" transform="translate(11.000000, 91.000000)">
                    <g id="Rectangle" fill-rule="nonzero">
                        <use fill="black" fill-opacity="1" filter="url(#filter-2)" xlink:href="#path-1"></use>
                        <use fill="#F0EFEF" xlink:href="#path-1"></use>
                    </g>
                    <g id="upload-(1)" transform="translate(33.000000, 28.000000)">
                        <g id="Group" transform="translate(2.000000, 2.024691)">
                            <path d="M65.7467485,45.9614097 L48.4707465,45.9614097 L48.4284422,45.8885331 L42.5185051,35.6568231 C42.27814,35.2262907 41.9215984,34.853419 41.463142,34.5901023 C40.113572,33.8148878 38.3906349,34.2800165 37.6150568,35.6289538 L31.6889351,45.8885331 L31.6469513,45.9614097 C19.4697343,45.9614097 0.000480730223,49.2467815 0.000480730223,30.6421143 C0.000480730223,22.0508479 6.91786815,15.0575803 15.5341562,14.8320634 C16.2879412,6.51836857 23.3400933,0 31.9268966,0 C39.8746491,0 46.5087262,5.58426715 48.049787,13.0077467 C48.3462373,12.9848426 48.6460527,12.9729902 48.9485923,12.9729902 C54.2250872,12.9729902 58.6655923,16.5236006 59.9696531,21.3446659 C61.7123002,20.4940122 63.6730385,20.0154293 65.7465882,20.0154293 C72.9766105,20.0154293 78.8402373,25.8248931 78.8402373,32.9884195 C78.8403976,40.8300984 72.8585112,45.1918011 65.7467485,45.9614097 Z" id="Path" fill="#FFFFFF"></path>
                            <path d="M42.5186653,35.6568231 L48.4286024,45.8885331 L54.3544037,56.1477921 C55.1299817,57.4967293 54.6646349,59.2188587 53.3150649,59.9940732 C52.8718316,60.2487407 52.3880568,60.3695076 51.9110122,60.3691873 L51.9110122,60.3807194 L47.9736714,60.3807194 L47.9736714,78.8032752 L32.1321684,78.8032752 L32.1321684,60.3807194 L28.2071663,60.3807194 C26.6438316,60.3807194 25.3766268,59.1141086 25.3766268,57.5515069 C25.3766268,56.9407852 25.5700406,56.3755513 25.8990203,55.9131455 L31.6894158,45.8885331 L37.6155375,35.6289538 C38.3911156,34.2800165 40.1140527,33.8148878 41.4636227,34.5901023 C41.9217586,34.853419 42.2783002,35.2264509 42.5186653,35.6568231 Z" id="Path" fill="#ACDBCB"></path>
                        </g>
                        <path d="M67.3126249,20.0138476 C65.6477909,20.0138476 64.0327658,20.2835497 62.4904521,20.8175085 C60.5184366,16.2245655 55.9880702,13.1114605 50.869927,12.9766095 C48.6784962,5.3818696 41.5841733,0 33.5109698,0 C28.9772401,0 24.6422655,1.67474736 21.3045897,4.71578236 C18.3280683,7.42753739 16.3723889,11.0108593 15.7094983,14.9204183 C15.5973883,14.9319495 15.4863993,14.9486057 15.3747698,14.9623791 C15.367883,14.96334 15.3608361,14.9641408 15.3539493,14.9649415 C12.0683246,15.371897 8.99394723,16.6837317 6.4355963,18.7686376 C6.36576777,18.8253327 6.29609939,18.8815473 6.2272318,18.9390432 C6.15948531,18.9958985 6.09221929,19.053074 6.02527359,19.1108902 C5.86880001,19.2459014 5.71440848,19.3833149 5.56257947,19.5239315 C5.54656375,19.538826 5.5310285,19.5540408 5.51501278,19.568615 C5.33355469,19.7380596 5.15497942,19.9105472 4.9807284,20.0879997 C4.9740018,20.0947262 4.96855646,20.1022535 4.96199001,20.1091402 C1.76204939,23.3772759 0,27.6838606 0,32.2412491 C0,37.0420741 1.41018404,40.8702739 4.19147378,43.6196655 C9.26669492,48.6368608 17.9606677,49.2116593 25.7699322,49.2116593 C26.9672674,49.2116593 28.1442626,49.1982063 29.2836208,49.1850735 C29.6808106,49.1805891 30.0677504,49.1761048 30.4500456,49.1724212 L26.1322078,56.6510482 C25.628033,57.3890454 25.3618517,58.2505225 25.3618517,59.1483549 C25.3618517,61.5913688 27.3494024,63.5789001 29.7924402,63.5789001 L32.1137585,63.5789001 L32.1137585,80.3984438 C32.1137585,81.2828231 32.8309424,82 33.7153304,82 L49.5483099,82 C50.432858,82 51.1498817,81.2829833 51.1498817,80.3984438 L51.1498817,63.5789001 L53.4836923,63.5789001 C53.5650521,63.5789001 53.6449706,63.5728142 53.7229671,63.5609627 C54.4108423,63.5236464 55.0847837,63.3242526 55.6848927,62.9792774 C57.797366,61.7654579 58.5283234,59.0591482 57.3127303,56.9439729 L52.81904,49.1607298 L67.3118241,49.1607298 C67.3693205,49.1607298 67.4269771,49.1575267 67.4841532,49.1514408 C76.3022479,48.1967531 82,42.4799981 82,34.5872086 C82.0008008,26.5514002 75.4116137,20.0138476 67.3126249,20.0138476 Z M54.6573242,59.4653029 C54.572601,59.7787274 54.3709631,60.0404217 54.0894068,60.2023391 C53.9023432,60.3098035 53.699424,60.3644165 53.4852939,60.3644165 C53.4848134,60.3644165 53.4846532,60.3644165 53.4841728,60.3644165 C53.4207505,60.3644165 53.3573283,60.3682603 53.294867,60.3759478 L49.5486302,60.3759478 C48.6642422,60.3759478 47.9470583,61.0931246 47.9470583,61.977504 L47.9470583,78.7970477 L35.3172226,78.7970477 L35.3172226,63.5790602 L35.8268427,63.5790602 C36.7112307,63.5790602 37.4284146,62.8618834 37.4284146,61.977504 C37.4284146,61.0931246 36.7112307,60.3759478 35.8268427,60.3759478 L34.2850095,60.3759478 C34.1877941,60.3759478 34.092981,60.3860376 34.0004102,60.4026937 C33.9078393,60.3860376 33.8130262,60.3759478 33.7158108,60.3759478 L29.7929207,60.3759478 C29.1160964,60.3759478 28.565476,59.8251726 28.565476,59.148515 C28.565476,58.8916254 28.6434725,58.6461069 28.7911374,58.438385 C28.8204462,58.397225 28.8478331,58.3547838 28.8729778,58.3110613 L40.5847925,38.0257499 C40.801325,37.649224 41.2060422,37.4153968 41.6413495,37.4153968 C41.8543585,37.4153968 42.0571175,37.4700099 42.2441811,37.5774743 C42.4379713,37.6887825 42.5909214,37.8431725 42.6985471,38.03616 C42.7023908,38.0428866 42.7062346,38.0496131 42.7100784,38.0563396 L54.5380071,58.5428065 C54.6996057,58.8243601 54.7420473,59.1518783 54.6573242,59.4653029 Z M67.2242181,45.9577775 L50.9706658,45.9577775 L45.4889658,36.4634318 C45.1002643,35.7718798 44.530425,35.1970813 43.8401475,34.8003758 C43.1708506,34.415682 42.4104243,34.2122843 41.6413495,34.2122843 C40.0626801,34.2122843 38.5937183,35.0620701 37.8092684,36.4269163 L32.3064276,45.9579377 C31.3229023,45.9585783 30.3142323,45.9699493 29.2472651,45.9821212 C21.271277,46.07357 11.3460157,46.1879211 6.44360416,41.3416119 C4.26338436,39.1862376 3.20346408,36.209425 3.20346408,32.2412491 C3.20346408,28.4634982 4.65961324,25.04866 7.05428352,22.511955 C7.12859646,22.4587834 7.20018672,22.4000062 7.2664918,22.3324206 C9.5937359,19.9624376 12.7200042,18.4691466 16.0195626,18.1119996 C16.0970787,18.1039918 16.1745948,18.0956637 16.2524312,18.088777 C16.34292,18.0804489 16.4335689,18.0724411 16.5240578,18.0658747 C16.7346645,18.0513006 16.9463923,18.0394491 17.1597216,18.0338436 C17.2916912,18.0299999 17.4238208,18.0279179 17.5562708,18.0279179 C18.9771854,18.0279179 20.3865687,18.2361202 21.7450219,18.646599 C22.5914527,18.902848 23.4856103,18.4235023 23.7413813,17.5767595 C23.9973125,16.7301768 23.5182823,15.8363483 22.6715313,15.5804196 C21.4669891,15.2163859 20.2292943,14.9843204 18.9776659,14.8835825 C20.3854476,8.11796829 26.3557872,3.20311249 33.5109698,3.20311249 C39.9914101,3.20311249 45.7006936,7.41088121 47.6485253,13.4069476 C47.6491659,13.4088695 47.6494862,13.4106312 47.6501269,13.4125531 C48.1219499,14.868688 48.3612248,16.381518 48.3612248,17.9092425 C48.3612248,20.665681 47.5820601,23.3583775 46.1081334,25.6966496 C45.6364705,26.4448967 45.8605304,27.4338577 46.6087848,27.905516 C46.8740051,28.0728786 47.169335,28.152476 47.4613015,28.152476 C47.9930234,28.152476 48.5132139,27.8878989 48.8176728,27.4048695 C50.6146364,24.5545799 51.5643685,21.2709091 51.5643685,17.9092425 C51.5643685,17.3450143 51.534259,16.7827079 51.4809266,16.2232843 C54.5474563,16.5206933 57.2656441,18.2305147 58.8556847,20.7638564 C58.8601691,20.7715439 58.8640129,20.7797118 58.8686574,20.7872391 C59.3401602,21.5447752 59.7013147,22.3583658 59.9463552,23.204468 C59.9503591,23.2182413 59.9545232,23.2316944 59.9583669,23.2453076 C60.2011652,24.0976559 60.3260878,24.9829962 60.3260878,25.8777856 C60.3260878,26.2539912 60.3035057,26.6337202 60.2593023,27.0065625 C60.1552001,27.8848559 60.782696,28.68147 61.660998,28.7857313 C61.7250609,28.7932586 61.7888035,28.7969422 61.8517452,28.7969422 C62.6517304,28.7969422 63.3434493,28.1982805 63.4401842,27.3840493 C63.4991221,26.8864458 63.5292316,26.3797134 63.5292316,25.8777856 C63.5292316,25.2139406 63.4758993,24.5542596 63.3745198,23.9038676 C64.629992,23.4482248 65.9496872,23.2171202 67.3126249,23.2171202 C73.6455604,23.2171202 78.797657,28.3179167 78.797657,34.587529 C78.797657,42.0102617 72.8356455,45.3240417 67.2242181,45.9577775 Z" id="Shape" fill="#535354" fill-rule="nonzero"></path>
                        <path d="M41.5347985,60.7407407 L41.4652015,60.7407407 C40.6561172,60.7407407 40,61.4207333 40,62.2592593 C40,63.0977852 40.6561172,63.7777778 41.4652015,63.7777778 L41.5347985,63.7777778 C42.3438828,63.7777778 43,63.0977852 43,62.2592593 C43,61.4207333 42.3438828,60.7407407 41.5347985,60.7407407 Z" id="Path" fill="#535354"></path>
                        <path d="M13.8895203,21.417749 C10.6590331,23.1245109 8.46191668,26.5250098 8.0119745,30.5144676 C7.90885966,31.4293828 8.48310264,32.2651468 9.29483568,32.3815359 C9.35824538,32.3907201 9.42121062,32.3950617 9.48343509,32.3950617 C10.2184246,32.3950617 10.8562255,31.7790511 10.9511918,30.9356058 C11.2723886,28.0876629 12.8408898,25.6601903 15.1468991,24.4418619 C15.8878147,24.0504471 16.2067892,23.0562137 15.8596656,22.2211177 C15.5125419,21.3858547 14.6307323,21.0258333 13.8895203,21.417749 Z" id="Path" fill="#535354"></path>
                        <path d="M10.8394447,36.2902621 C10.4859695,35.5420242 9.59594526,35.2218221 8.85217127,35.5771189 C8.10854637,35.9325657 7.79114913,36.825232 8.14432623,37.5736199 L8.14924597,37.5844183 C8.39776696,38.1400851 8.94102461,38.4691358 9.50962633,38.4691358 C9.71416791,38.4691358 9.9219893,38.4265422 10.1205676,38.3365557 C10.8713484,37.9965566 11.2061884,37.1086895 10.8683668,36.3534027 L10.8394447,36.2902621 Z" id="Path" fill="#535354"></path>
                        <path d="M42.5588681,28.6943721 L42.516532,28.7304218 C41.8948592,29.2740335 41.824299,30.2270132 42.3595169,30.8582605 C42.6534931,31.2048808 43.0685359,31.382716 43.4861039,31.382716 C43.8291009,31.382716 44.1735834,31.2626509 44.4540417,31.0175429 C44.4561214,31.0157329 44.4696393,31.0044202 44.4717189,31.0024593 C45.0994822,30.4685011 45.1774698,29.5244207 44.6535415,28.8856317 C44.1294647,28.2469935 43.1894538,28.1641847 42.5588681,28.6943721 Z" id="Path" fill="#535354"></path>
                    </g>
                    <text id="UPLOAD-FILES" font-family="GillSans-SemiBold, Gill Sans" font-size="18" font-weight="500" letter-spacing="1.544517" fill="#000000" fill-opacity="0.752009737">
                        <tspan x="31.4811951" y="151">UPLOAD</tspan>
                        <tspan x="47.7969106" y="173">FILES</tspan>
                    </text>
                </g>
            </g>
        </g>
    </g>
</svg>