<?xml version="1.0" encoding="UTF-8"?>
<svg width="13px" height="22px" viewBox="0 0 13 22" version="1.1" xmlns="http://www.w3.org/2000/svg" xmlns:xlink="http://www.w3.org/1999/xlink">
    <!-- Generator: Sketch 52.5 (67469) - http://www.bohemiancoding.com/sketch -->
    <title>Fill 1</title>
    <desc>Created with Sketch.</desc>
    <g id="Page-1" stroke="none" stroke-width="1" fill="none" fill-rule="evenodd">
        <g id="Who's-sick?" transform="translate(-23.000000, -19.000000)" fill="#4A4A4A">
            <g id="Heading" transform="translate(22.000000, 18.000000)">
                <path d="M6.34018624,17.6790103 L6.34018624,5.16794122 C6.34018624,4.52512086 5.81359576,4 5.17041698,4 C4.52659048,4 4,4.52512086 4,5.16794122 L4,18.8475982 C4,19.4904186 4.52659048,20.0155395 5.17041698,20.0155395 C9.03673926,20.0155395 11.936481,20.0155395 13.8696421,20.0155395 C14.9810189,20.0155395 16.648084,20.0155395 18.8708375,20.0155395 C19.514664,20.0155395 20.0412545,19.4904186 20.0412545,18.8475982 C20.0412545,18.2047779 19.514664,17.6790103 18.8708375,17.6790103 L6.34018624,17.6790103 Z" id="Fill-1" transform="translate(12.020627, 12.007770) rotate(45.000000) translate(-12.020627, -12.007770) "></path>
            </g>
        </g>
    </g>
</svg>