<?xml version="1.0" encoding="utf-8"?>
<!-- Generator: Adobe Illustrator 22.1.0, SVG Export Plug-In . SVG Version: 6.00 Build 0)  -->
<svg version="1.1" id="Layer_1" xmlns="http://www.w3.org/2000/svg" xmlns:xlink="http://www.w3.org/1999/xlink" x="0px" y="0px"
	 viewBox="0 0 144.2 144.4" style="enable-background:new 0 0 144.2 144.4;" xml:space="preserve">
<style type="text/css">
	.st0{fill:#535354;}
</style>
<title>Artboard 1</title>
<g>
	<path class="st0" d="M120.2,132.3H23.9c-1.7,0-3.1-1.4-3.1-3.1V23.7c0-1.7,1.4-3.1,3.1-3.1h96.3c1.7,0,3.1,1.4,3.1,3.1v105.5
		C123.3,130.9,121.9,132.3,120.2,132.3z M27,126.2h90.1V26.8H27V126.2z"/>
	<g>
		<path class="st0" d="M46.6,56.8h7.3V108h-7.3V56.8z"/>
		<path class="st0" d="M82.9,108.5l-4.5-5.3c3.8-2.4,7.1-5.3,9.9-8.7c2.8-3.4,4.7-6.9,5.7-10.5c-2.3,1.4-5,2.2-8.2,2.2
			c-3.9,0-7.3-1.5-10-4.4c-2.8-2.9-4.2-6.4-4.2-10.5c0-4.2,1.5-7.8,4.5-10.8c3-2.9,6.6-4.4,10.9-4.4c4.8,0,8.8,1.7,11.9,5.2
			c3.1,3.5,4.6,8,4.6,13.4c0,6.2-1.9,12.5-5.8,18.8C93.8,100,88.9,104.9,82.9,108.5z M95.5,76.8c0.3-2,0.4-3.2,0.4-3.8
			c0-2.9-0.8-5.4-2.5-7.2c-1.6-1.9-3.8-2.8-6.3-2.8c-2.4,0-4.3,0.8-5.9,2.4c-1.5,1.6-2.3,3.6-2.3,6c0,2.2,0.8,4.1,2.5,5.7
			c1.7,1.6,3.7,2.4,6,2.4C90.2,79.5,92.9,78.6,95.5,76.8z"/>
	</g>
	<g>
		<path class="st0" d="M97.4,35.3L97.4,35.3c-2.3,0-4.3-1.9-4.3-4.3V16.4c0-2.3,1.9-4.3,4.3-4.3h0c2.3,0,4.3,1.9,4.3,4.3l0,14.7
			C101.6,33.4,99.7,35.3,97.4,35.3z"/>
		<path class="st0" d="M46.8,35.3L46.8,35.3c-2.3,0-4.3-1.9-4.3-4.3V16.4c0-2.3,1.9-4.3,4.3-4.3h0c2.3,0,4.3,1.9,4.3,4.3V31
			C51,33.4,49.1,35.3,46.8,35.3z"/>
	</g>
</g>
</svg>
