<?xml version="1.0" encoding="utf-8"?>
<!-- Generator: Adobe Illustrator 22.1.0, SVG Export Plug-In . SVG Version: 6.00 Build 0)  -->
<svg version="1.1" id="Layer_1" xmlns="http://www.w3.org/2000/svg" xmlns:xlink="http://www.w3.org/1999/xlink" x="0px" y="0px"
	 viewBox="0 0 144.2 144.4" style="enable-background:new 0 0 144.2 144.4;" xml:space="preserve">
<style type="text/css">
	.st0{fill:#545455;}
</style>
<title>Artboard 1</title>
<path class="st0" d="M72,6.4C44.6,6.4,22.3,28.8,22.4,56.2c0,10,3,19.7,8.6,27.9l32.3,49.3c1.9,2.8,5.1,4.5,8.4,4.6
	c3.6,0.2,7-1.6,9-4.6l32.3-49.3c15.5-22.6,9.7-53.6-12.9-69.1C91.9,9.4,82.1,6.4,72,6.4L72,6.4z M97,69.7h-18v18H65v-18h-18V55.7h18
	v-18h14.1v18h18V69.7z"/>
</svg>
