<?xml version="1.0" encoding="utf-8"?>
<!-- Generator: Adobe Illustrator 22.1.0, SVG Export Plug-In . SVG Version: 6.00 Build 0)  -->
<svg version="1.1" id="Layer_1" xmlns="http://www.w3.org/2000/svg" xmlns:xlink="http://www.w3.org/1999/xlink" x="0px" y="0px"
	 viewBox="0 0 144.2 144.4" style="enable-background:new 0 0 144.2 144.4;" xml:space="preserve">
<style type="text/css">
	.st0{fill:#535354;}
</style>
<title>Artboard 1</title>
<g>
	<path class="st0" d="M76.8,104.4c4.1-3.8,9.2-2.8,12.5-2.8c6.3,0,12.8,2.2,18.5,4.1c5,1.7,9.8,3.3,14.1,3.3c1.3,0,2.4-1,2.4-2.3
		v-66c0-1.3-1.1-2.3-2.4-2.3c-3.5,0-7.9-1.5-12.5-3c-6-2-12.9-4.3-20-4.3c-8.4,0-13.5,3.6-16.3,6.6c-0.7,0.7-1.3,1.5-1.9,2.4
		c-0.6-0.8-1.2-1.6-1.9-2.4c-2.8-3-7.9-6.6-16.3-6.6c-7.1,0-14,2.3-20,4.3c-4.7,1.6-9.1,3-12.5,3c-1.3,0-2.4,1-2.4,2.3v66
		c0,1.3,1.1,2.3,2.4,2.3c4.3,0,9-1.6,14.1-3.3c5.7-1.9,12.1-4,18.4-4c5.3,0,11.3,0.8,15.1,4.2c0,0,2,1.5,4.2,1.2
		C72.2,107,74.1,107.1,76.8,104.4z M52.8,97c-7.1,0-14,2.3-20,4.3c-3.7,1.2-7.1,2.4-10.2,2.8V42.8c3.6-0.4,7.6-1.8,11.7-3.1
		c5.7-1.9,12.1-4,18.4-4c12.7,0,15.8,9.6,16,10c0.3,1,1.2,1.6,2.3,1.6c1,0,2-0.7,2.3-1.6c0-0.1,3.4-10,16-10
		c6.3,0,12.8,2.2,18.5,4.1c4.1,1.4,8.1,2.7,11.7,3.1v61.3c-3.1-0.5-6.7-1.7-10.2-2.8c-6-2-12.9-4.3-20-4.3c-6.4,0-11,0.9-14,3.8v-42
		c0-0.8-1.3-1.5-2.8-1.5c-1.6,0-2.8,0.7-2.8,1.5v43.2C65,96.2,52.8,97,52.8,97z"/>
	<path class="st0" d="M121.9,113.5c-3.5,0-7.9-1.2-12.6-2.5c-6-1.6-12.8-3.4-19.9-3.4c-7.8,0-12.7,2.5-15.5,4.7c0,0-1,0.8-2.7,0.8
		c-1.7,0-2.7-0.8-2.7-0.8c-2.8-2.2-7.8-4.7-15.5-4.7c-7.1,0-13.9,1.8-20,3.4c-4.7,1.3-9.1,2.4-12.6,2.4c-1.3,0-2.4,0.9-2.4,2
		s1.1,2,2.4,2c4.2,0,9-1.3,14-2.6c5.7-1.5,12.1-3.3,18.5-3.3c5.4,0,9.7,1.4,12.9,4.1c0,0,2.6,1.8,5.4,1.8c2.6,0,4.2-0.8,5.4-1.8
		c3.2-2.7,7.5-4.1,12.9-4.1c6.4,0,12.8,1.7,18.6,3.3c5,1.3,9.8,2.6,14,2.6c1.3,0,2.4-0.9,2.4-2S123.2,113.5,121.9,113.5z"/>
</g>
</svg>
