<?xml version="1.0" encoding="utf-8"?>
<!-- Generator: Adobe Illustrator 22.1.0, SVG Export Plug-In . SVG Version: 6.00 Build 0)  -->
<svg version="1.1" id="Layer_1" xmlns="http://www.w3.org/2000/svg" xmlns:xlink="http://www.w3.org/1999/xlink" x="0px" y="0px"
	 viewBox="0 0 144.2 144.4" style="enable-background:new 0 0 144.2 144.4;" xml:space="preserve">
<style type="text/css">
	.st0{fill:#535354;}
</style>
<title>Artboard 1</title>
<g>
	<path class="st0" d="M132.4,70.9L74.3,13.8c-1.1-1.1-2.9-1.1-4,0L12.3,70.9c-0.5,0.5-0.8,1.3-0.8,2c0,0.8,0.3,1.5,0.8,2l7.1,7
		c1.1,1.1,2.9,1.1,4,0l4.1-4.1V132c0,1.6,1.3,2.8,2.8,2.8h84.1c1.6,0,2.8-1.3,2.8-2.8V77.9l4.1,4.1c1.1,1.1,2.9,1.1,4,0l7.1-7
		c0.5-0.5,0.8-1.3,0.8-2C133.3,72.2,133,71.5,132.4,70.9z M57.2,108c0-8.4,6.8-15.2,15.2-15.2s15.2,6.8,15.2,15.2v21.2H57.2V108z
		 M72.4,87.1c-11.5,0-20.9,9.4-20.9,20.9v21.2H33.1V72.3l39.2-38.6l39.2,38.6v56.8H93.2V108C93.2,96.5,83.9,87.1,72.4,87.1z
		 M126.4,73l-3,3l-6.8-6.7L74.3,27.7c-1.1-1-2.9-1.1-4,0L21.4,76l-3-3l54-53.1L126.4,73z"/>
	<path class="st0" d="M87.5,61.9H57.3c-2.1,0-3.8,1.9-3.8,4.3v8.6c0,2.4,1.7,4.3,3.8,4.3h30.2c2.1,0,3.8-1.9,3.8-4.3v-8.6
		C91.2,63.8,89.5,61.9,87.5,61.9z M57.3,74.8v-8.6h30.2l0,8.6H57.3z"/>
</g>
</svg>
