<?xml version="1.0" encoding="utf-8"?>
<!-- Generator: Adobe Illustrator 22.1.0, SVG Export Plug-In . SVG Version: 6.00 Build 0)  -->
<svg version="1.1" id="Layer_1" xmlns="http://www.w3.org/2000/svg" xmlns:xlink="http://www.w3.org/1999/xlink" x="0px" y="0px"
	 viewBox="0 0 144.2 144.4" style="enable-background:new 0 0 144.2 144.4;" xml:space="preserve">
<style type="text/css">
	.st0{fill:#535354;}
</style>
<title>Artboard 1</title>
<g>
	<path class="st0" d="M104.2,77.9c-5.8-3.9-8.5-11.3-8.7-11.7C89.5,53.6,77.2,51.4,71.9,52c0,0-0.1,0-0.1,0
		c-15.6,0-23.1,10.4-24.9,15.9l0,0c-2.5,8-8.5,10.6-8.8,10.8c-6.2,2.9-9.4,6.7-9.4,6.7c-10.9,10.6-5.4,27-5.2,27.5
		c4.2,14.5,19.4,17.6,20,17.7c1.9,0.4,3.8,0.6,5.5,0.6c9,0,14.9-4.8,15.3-5.2c4.1-3.9,7.1-3.8,7.6-3.7c5.1,0,8.6,4.3,8.6,4.3
		l0.8,0.7c10.2,6.4,22.7,1.8,23.5,1.5c16.9-7.9,17.1-23.1,17.1-23.5C123.2,89.4,111.1,80.5,104.2,77.9z M115.6,105.1
		c0,0.5-0.3,11.9-13.3,18.1c-0.1,0-9.9,3.6-17.4-0.8c-1.4-1.5-6.1-6.1-12.6-6.1c0,0,0,0-0.1,0c-0.6-0.1-6.1-0.7-12.2,5.3
		c-0.1,0.1-6.2,5.1-15.4,3.1c-0.1,0-12.1-2.5-15.3-13.5c0-0.1-4.4-13.3,3.8-21.5c0,0,2.5-3,7.3-5.2c0.4-0.1,8.8-3.7,12.2-14.6
		c0.2-0.7,4.4-11.6,19.4-11.6c0,0,0,0,0,0c0.1,0,12-1.1,17.6,10.4c0.1,0.4,3.5,9.7,11.3,14.7l0.6,0.3
		C101.9,83.6,116.9,89.3,115.6,105.1z"/>
	<path class="st0" d="M38.9,58.2c0-9.4-6.2-17-13.9-17s-13.9,7.6-13.9,17s6.2,17,13.9,17S38.9,67.6,38.9,58.2z M17.3,58.2
		c0-5.8,3.5-10.7,7.7-10.7s7.7,4.9,7.7,10.7S29.2,69,25,69S17.3,64.1,17.3,58.2z"/>
	<path class="st0" d="M118.8,41.3c-7.7,0-13.9,7.6-13.9,17s6.2,17,13.9,17s13.9-7.6,13.9-17S126.5,41.3,118.8,41.3z M118.8,69
		c-4.2,0-7.7-4.9-7.7-10.7s3.5-10.7,7.7-10.7c4.2,0,7.7,4.9,7.7,10.7S123,69,118.8,69z"/>
	<path class="st0" d="M52.6,51.9c7.7,0,13.9-7.6,13.9-17s-6.2-17-13.9-17s-13.9,7.6-13.9,17S45,51.9,52.6,51.9z M52.6,24.2
		c4.2,0,7.7,4.9,7.7,10.7s-3.5,10.7-7.7,10.7s-7.7-4.9-7.7-10.7S48.5,24.2,52.6,24.2z"/>
	<path class="st0" d="M91,51.9c7.7,0,13.9-7.6,13.9-17S98.7,18,91,18s-13.9,7.6-13.9,17S83.4,51.9,91,51.9z M91,24.2
		c4.2,0,7.7,4.9,7.7,10.7S95.2,45.7,91,45.7c-4.2,0-7.7-4.9-7.7-10.7S86.9,24.2,91,24.2z"/>
</g>
</svg>
